<mxfile host="app.diagrams.net" modified="2023-05-24T10:14:34.694Z" agent="Mozilla/5.0 (X11; Ubuntu; Linux x86_64; rv:109.0) Gecko/20100101 Firefox/113.0" etag="YzPOlAuYhg5xli9SIqE-" version="21.3.3" type="github">
  <diagram id="HgVTTP0pYIYPx_LaOazx" name="Seite-1">
    <mxGraphModel dx="1054" dy="610" grid="1" gridSize="10" guides="1" tooltips="1" connect="1" arrows="1" fold="1" page="1" pageScale="1" pageWidth="850" pageHeight="1100" math="0" shadow="0">
      <root>
        <mxCell id="0" />
        <mxCell id="1" parent="0" />
        <mxCell id="oMmEVApQNl-2cXcbZhK9-1" value="" style="edgeStyle=orthogonalEdgeStyle;rounded=0;orthogonalLoop=1;jettySize=auto;html=1;entryX=0;entryY=0.5;entryDx=0;entryDy=0;" parent="1" source="oMmEVApQNl-2cXcbZhK9-2" target="oMmEVApQNl-2cXcbZhK9-4" edge="1">
          <mxGeometry relative="1" as="geometry">
            <mxPoint x="980" y="820" as="targetPoint" />
          </mxGeometry>
        </mxCell>
        <mxCell id="oMmEVApQNl-2cXcbZhK9-2" value="Root" style="rounded=0;whiteSpace=wrap;html=1;" parent="1" vertex="1">
          <mxGeometry x="780" y="790" width="120" height="60" as="geometry" />
        </mxCell>
        <mxCell id="oMmEVApQNl-2cXcbZhK9-3" value="isVerified" style="rounded=0;orthogonalLoop=1;jettySize=auto;html=1;verticalAlign=middle;labelPosition=center;verticalLabelPosition=middle;align=center;" parent="1" source="oMmEVApQNl-2cXcbZhK9-4" target="oMmEVApQNl-2cXcbZhK9-6" edge="1">
          <mxGeometry relative="1" as="geometry" />
        </mxCell>
        <mxCell id="oMmEVApQNl-2cXcbZhK9-4" value="GetGameSetup" style="ellipse;whiteSpace=wrap;html=1;" parent="1" vertex="1">
          <mxGeometry x="980" y="780" width="120" height="80" as="geometry" />
        </mxCell>
        <mxCell id="oMmEVApQNl-2cXcbZhK9-5" value="&lt;div&gt;puck_found&lt;/div&gt;" style="orthogonalLoop=1;jettySize=auto;html=1;verticalAlign=middle;horizontal=1;labelPosition=center;verticalLabelPosition=middle;align=center;rounded=0;" parent="1" source="oMmEVApQNl-2cXcbZhK9-6" target="oMmEVApQNl-2cXcbZhK9-16" edge="1">
          <mxGeometry x="-0.0769" relative="1" as="geometry">
            <mxPoint as="offset" />
          </mxGeometry>
        </mxCell>
        <mxCell id="oMmEVApQNl-2cXcbZhK9-6" value="FindPuck" style="ellipse;whiteSpace=wrap;html=1;" parent="1" vertex="1">
          <mxGeometry x="1180" y="780" width="120" height="80" as="geometry" />
        </mxCell>
        <mxCell id="oMmEVApQNl-2cXcbZhK9-8" value="puckReleased" style="rounded=0;orthogonalLoop=1;jettySize=auto;html=1;" parent="1" source="oMmEVApQNl-2cXcbZhK9-10" target="oMmEVApQNl-2cXcbZhK9-6" edge="1">
          <mxGeometry relative="1" as="geometry">
            <mxPoint x="1198" y="792" as="targetPoint" />
          </mxGeometry>
        </mxCell>
        <mxCell id="oMmEVApQNl-2cXcbZhK9-9" value="obstacleDetectedBehind" style="edgeStyle=none;curved=1;orthogonalLoop=1;jettySize=auto;html=1;" parent="1" source="oMmEVApQNl-2cXcbZhK9-10" target="oMmEVApQNl-2cXcbZhK9-12" edge="1">
          <mxGeometry x="0.3829" y="12" relative="1" as="geometry">
            <Array as="points">
              <mxPoint x="1050" y="620" />
            </Array>
            <mxPoint as="offset" />
          </mxGeometry>
        </mxCell>
        <mxCell id="oMmEVApQNl-2cXcbZhK9-10" value="ReleasePuck" style="ellipse;whiteSpace=wrap;html=1;" parent="1" vertex="1">
          <mxGeometry x="1070" y="630" width="120" height="80" as="geometry" />
        </mxCell>
        <mxCell id="oMmEVApQNl-2cXcbZhK9-11" value="success" style="edgeStyle=none;curved=1;orthogonalLoop=1;jettySize=auto;html=1;" parent="1" source="oMmEVApQNl-2cXcbZhK9-12" target="oMmEVApQNl-2cXcbZhK9-10" edge="1">
          <mxGeometry relative="1" as="geometry">
            <mxPoint x="1185" y="650" as="targetPoint" />
            <Array as="points">
              <mxPoint x="1130" y="590" />
            </Array>
          </mxGeometry>
        </mxCell>
        <mxCell id="oMmEVApQNl-2cXcbZhK9-12" value="opt: AvoidObstacleBehind" style="ellipse;whiteSpace=wrap;html=1;" parent="1" vertex="1">
          <mxGeometry x="1010" y="480" width="120" height="80" as="geometry" />
        </mxCell>
        <mxCell id="oMmEVApQNl-2cXcbZhK9-13" value="obstacle_detected" style="edgeStyle=none;orthogonalLoop=1;jettySize=auto;html=1;curved=1;exitX=1;exitY=0;exitDx=0;exitDy=0;" parent="1" source="oMmEVApQNl-2cXcbZhK9-16" target="oMmEVApQNl-2cXcbZhK9-20" edge="1">
          <mxGeometry x="-0.313" y="-24" relative="1" as="geometry">
            <mxPoint x="1639.0700000000002" y="745.2" as="targetPoint" />
            <Array as="points">
              <mxPoint x="1580" y="710" />
            </Array>
            <mxPoint as="offset" />
          </mxGeometry>
        </mxCell>
        <mxCell id="oMmEVApQNl-2cXcbZhK9-14" value="puck_attached" style="edgeStyle=none;curved=1;orthogonalLoop=1;jettySize=auto;html=1;entryX=0.5;entryY=1;entryDx=0;entryDy=0;" parent="1" source="oMmEVApQNl-2cXcbZhK9-16" target="s_LG2WAlYeivpb68vOg7-10" edge="1">
          <mxGeometry relative="1" as="geometry">
            <mxPoint x="1510" y="720" as="targetPoint" />
          </mxGeometry>
        </mxCell>
        <mxCell id="oMmEVApQNl-2cXcbZhK9-15" value="&lt;div&gt;destination_lost&lt;/div&gt;(e.g. puck lost on the way to goal)" style="edgeStyle=none;curved=1;orthogonalLoop=1;jettySize=auto;html=1;exitX=0;exitY=1;exitDx=0;exitDy=0;entryX=1;entryY=1;entryDx=0;entryDy=0;" parent="1" source="oMmEVApQNl-2cXcbZhK9-16" target="oMmEVApQNl-2cXcbZhK9-6" edge="1">
          <mxGeometry relative="1" as="geometry">
            <Array as="points">
              <mxPoint x="1370" y="870" />
            </Array>
          </mxGeometry>
        </mxCell>
        <mxCell id="oMmEVApQNl-2cXcbZhK9-16" value="AttachPuck" style="ellipse;whiteSpace=wrap;html=1;" parent="1" vertex="1">
          <mxGeometry x="1430" y="780" width="120" height="80" as="geometry" />
        </mxCell>
        <mxCell id="oMmEVApQNl-2cXcbZhK9-19" value="&lt;div&gt;success&lt;/div&gt;" style="edgeStyle=none;curved=1;orthogonalLoop=1;jettySize=auto;html=1;" parent="1" source="oMmEVApQNl-2cXcbZhK9-20" target="oMmEVApQNl-2cXcbZhK9-16" edge="1">
          <mxGeometry relative="1" as="geometry">
            <mxPoint x="1652.5" y="750" as="sourcePoint" />
            <Array as="points">
              <mxPoint x="1610" y="840" />
            </Array>
          </mxGeometry>
        </mxCell>
        <mxCell id="oMmEVApQNl-2cXcbZhK9-20" value="AvoidObstacleFront" style="ellipse;whiteSpace=wrap;html=1;" parent="1" vertex="1">
          <mxGeometry x="1680" y="600" width="120" height="80" as="geometry" />
        </mxCell>
        <mxCell id="oMmEVApQNl-2cXcbZhK9-22" value="&lt;div style=&quot;font-size: 24px&quot;&gt;Milestone 1:&lt;/div&gt;" style="text;html=1;resizable=0;points=[];autosize=1;align=left;verticalAlign=top;spacingTop=-4;" parent="1" vertex="1">
          <mxGeometry x="782" y="1134" width="140" height="20" as="geometry" />
        </mxCell>
        <mxCell id="oMmEVApQNl-2cXcbZhK9-23" value="destination_found" style="rounded=0;orthogonalLoop=1;jettySize=auto;html=1;exitX=1;exitY=0.5;exitDx=0;exitDy=0;" parent="1" source="oMmEVApQNl-2cXcbZhK9-27" target="oMmEVApQNl-2cXcbZhK9-26" edge="1">
          <mxGeometry relative="1" as="geometry" />
        </mxCell>
        <mxCell id="oMmEVApQNl-2cXcbZhK9-24" value="Root" style="rounded=0;whiteSpace=wrap;html=1;" parent="1" vertex="1">
          <mxGeometry x="810" y="1200" width="120" height="60" as="geometry" />
        </mxCell>
        <mxCell id="oMmEVApQNl-2cXcbZhK9-25" value="destination_reached" style="edgeStyle=none;orthogonalLoop=1;jettySize=auto;html=1;exitX=0;exitY=1;exitDx=0;exitDy=0;entryX=1;entryY=1;entryDx=0;entryDy=0;curved=1;" parent="1" source="oMmEVApQNl-2cXcbZhK9-26" target="oMmEVApQNl-2cXcbZhK9-27" edge="1">
          <mxGeometry relative="1" as="geometry">
            <Array as="points">
              <mxPoint x="1230" y="1270" />
            </Array>
          </mxGeometry>
        </mxCell>
        <mxCell id="oMmEVApQNl-2cXcbZhK9-26" value="MoveToDestination" style="ellipse;whiteSpace=wrap;html=1;" parent="1" vertex="1">
          <mxGeometry x="1320" y="1190" width="120" height="80" as="geometry" />
        </mxCell>
        <mxCell id="oMmEVApQNl-2cXcbZhK9-27" value="FindDestination&lt;div&gt;(random in range)&lt;br&gt;&lt;/div&gt;" style="ellipse;whiteSpace=wrap;html=1;" parent="1" vertex="1">
          <mxGeometry x="1025" y="1190" width="120" height="80" as="geometry" />
        </mxCell>
        <mxCell id="oMmEVApQNl-2cXcbZhK9-28" style="edgeStyle=orthogonalEdgeStyle;rounded=0;orthogonalLoop=1;jettySize=auto;html=1;exitX=1;exitY=0.5;exitDx=0;exitDy=0;" parent="1" source="oMmEVApQNl-2cXcbZhK9-24" target="oMmEVApQNl-2cXcbZhK9-27" edge="1">
          <mxGeometry relative="1" as="geometry">
            <mxPoint x="930" y="1230" as="sourcePoint" />
            <mxPoint x="1240" y="1220" as="targetPoint" />
          </mxGeometry>
        </mxCell>
        <mxCell id="oMmEVApQNl-2cXcbZhK9-114" value="&lt;div&gt;Node: player_position_calculator&lt;/div&gt;&lt;div&gt;uses odometry (cmd_vel) to update its current position&lt;/div&gt;&lt;div&gt;camera/laserscan feed can/should be included later&lt;br&gt;&lt;/div&gt;" style="text;html=1;resizable=0;points=[];autosize=1;align=left;verticalAlign=top;spacingTop=-4;" parent="1" vertex="1">
          <mxGeometry x="876" y="1338" width="300" height="40" as="geometry" />
        </mxCell>
        <mxCell id="oMmEVApQNl-2cXcbZhK9-115" value="&lt;div&gt;Node: velocity_calculator&lt;/div&gt;&lt;div&gt;uses specified target position and obstacles from laserscan to calculate input force&lt;/div&gt;&lt;div&gt;using repulsive field method&lt;/div&gt;&lt;div&gt;calculates new input (cmd_vel) whenever laserscan or target_pos is updated&lt;br&gt;&lt;/div&gt;" style="text;html=1;resizable=0;points=[];autosize=1;align=left;verticalAlign=top;spacingTop=-4;" parent="1" vertex="1">
          <mxGeometry x="882" y="1416" width="450" height="60" as="geometry" />
        </mxCell>
        <mxCell id="oMmEVApQNl-2cXcbZhK9-116" value="sets a random target_pos" style="text;html=1;resizable=0;points=[];autosize=1;align=left;verticalAlign=top;spacingTop=-4;" parent="1" vertex="1">
          <mxGeometry x="1006" y="1145" width="150" height="20" as="geometry" />
        </mxCell>
        <mxCell id="oMmEVApQNl-2cXcbZhK9-117" value="checks if target_pos has been reached" style="text;html=1;resizable=0;points=[];autosize=1;align=left;verticalAlign=top;spacingTop=-4;" parent="1" vertex="1">
          <mxGeometry x="1316" y="1145" width="220" height="20" as="geometry" />
        </mxCell>
        <mxCell id="s_LG2WAlYeivpb68vOg7-10" value="FindGoal" style="ellipse;whiteSpace=wrap;html=1;" vertex="1" parent="1">
          <mxGeometry x="1430" y="630" width="120" height="80" as="geometry" />
        </mxCell>
        <mxCell id="s_LG2WAlYeivpb68vOg7-11" value="" style="endArrow=classic;html=1;rounded=0;exitX=0;exitY=1;exitDx=0;exitDy=0;" edge="1" parent="1" source="s_LG2WAlYeivpb68vOg7-10" target="oMmEVApQNl-2cXcbZhK9-6">
          <mxGeometry width="50" height="50" relative="1" as="geometry">
            <mxPoint x="1260" y="840" as="sourcePoint" />
            <mxPoint x="1310" y="790" as="targetPoint" />
          </mxGeometry>
        </mxCell>
        <mxCell id="s_LG2WAlYeivpb68vOg7-12" value="puck_lost" style="edgeLabel;html=1;align=center;verticalAlign=middle;resizable=0;points=[];" vertex="1" connectable="0" parent="s_LG2WAlYeivpb68vOg7-11">
          <mxGeometry x="-0.2302" y="2" relative="1" as="geometry">
            <mxPoint as="offset" />
          </mxGeometry>
        </mxCell>
        <mxCell id="s_LG2WAlYeivpb68vOg7-13" value="MoveToGoal" style="ellipse;whiteSpace=wrap;html=1;" vertex="1" parent="1">
          <mxGeometry x="1310" y="480" width="120" height="80" as="geometry" />
        </mxCell>
        <mxCell id="s_LG2WAlYeivpb68vOg7-14" value="" style="endArrow=classic;html=1;rounded=0;exitX=0.5;exitY=0;exitDx=0;exitDy=0;entryX=1;entryY=1;entryDx=0;entryDy=0;" edge="1" parent="1" source="s_LG2WAlYeivpb68vOg7-10" target="s_LG2WAlYeivpb68vOg7-13">
          <mxGeometry width="50" height="50" relative="1" as="geometry">
            <mxPoint x="1260" y="840" as="sourcePoint" />
            <mxPoint x="1310" y="790" as="targetPoint" />
            <Array as="points">
              <mxPoint x="1460" y="580" />
            </Array>
          </mxGeometry>
        </mxCell>
        <mxCell id="s_LG2WAlYeivpb68vOg7-15" value="&lt;div&gt;goal_found&lt;/div&gt;" style="edgeLabel;html=1;align=center;verticalAlign=middle;resizable=0;points=[];" vertex="1" connectable="0" parent="s_LG2WAlYeivpb68vOg7-14">
          <mxGeometry x="-0.2208" y="-2" relative="1" as="geometry">
            <mxPoint y="-10" as="offset" />
          </mxGeometry>
        </mxCell>
        <mxCell id="s_LG2WAlYeivpb68vOg7-16" value="" style="endArrow=classic;html=1;rounded=0;" edge="1" parent="1" source="s_LG2WAlYeivpb68vOg7-13" target="oMmEVApQNl-2cXcbZhK9-6">
          <mxGeometry width="50" height="50" relative="1" as="geometry">
            <mxPoint x="1260" y="840" as="sourcePoint" />
            <mxPoint x="1310" y="790" as="targetPoint" />
          </mxGeometry>
        </mxCell>
        <mxCell id="s_LG2WAlYeivpb68vOg7-17" value="&lt;div&gt;puck_lost&lt;/div&gt;" style="edgeLabel;html=1;align=center;verticalAlign=middle;resizable=0;points=[];" vertex="1" connectable="0" parent="s_LG2WAlYeivpb68vOg7-16">
          <mxGeometry x="-0.1065" relative="1" as="geometry">
            <mxPoint as="offset" />
          </mxGeometry>
        </mxCell>
        <mxCell id="s_LG2WAlYeivpb68vOg7-19" value="" style="endArrow=classic;html=1;rounded=0;" edge="1" parent="1" source="s_LG2WAlYeivpb68vOg7-13" target="oMmEVApQNl-2cXcbZhK9-10">
          <mxGeometry width="50" height="50" relative="1" as="geometry">
            <mxPoint x="1260" y="790" as="sourcePoint" />
            <mxPoint x="1253.8688524590166" y="565.2459016393443" as="targetPoint" />
          </mxGeometry>
        </mxCell>
        <mxCell id="s_LG2WAlYeivpb68vOg7-20" value="&lt;div&gt;goal_reached&lt;/div&gt;" style="edgeLabel;html=1;align=center;verticalAlign=middle;resizable=0;points=[];" vertex="1" connectable="0" parent="s_LG2WAlYeivpb68vOg7-19">
          <mxGeometry x="-0.4061" y="3" relative="1" as="geometry">
            <mxPoint x="-43" y="22" as="offset" />
          </mxGeometry>
        </mxCell>
        <mxCell id="s_LG2WAlYeivpb68vOg7-21" value="" style="endArrow=classic;html=1;rounded=0;" edge="1" parent="1" source="s_LG2WAlYeivpb68vOg7-13" target="s_LG2WAlYeivpb68vOg7-10">
          <mxGeometry width="50" height="50" relative="1" as="geometry">
            <mxPoint x="1260" y="790" as="sourcePoint" />
            <mxPoint x="1310" y="740" as="targetPoint" />
            <Array as="points">
              <mxPoint x="1410" y="600" />
            </Array>
          </mxGeometry>
        </mxCell>
        <mxCell id="s_LG2WAlYeivpb68vOg7-22" value="&lt;div&gt;goal_lost&lt;/div&gt;" style="edgeLabel;html=1;align=center;verticalAlign=middle;resizable=0;points=[];" vertex="1" connectable="0" parent="s_LG2WAlYeivpb68vOg7-21">
          <mxGeometry x="0.0944" y="-3" relative="1" as="geometry">
            <mxPoint as="offset" />
          </mxGeometry>
        </mxCell>
        <mxCell id="s_LG2WAlYeivpb68vOg7-23" value="" style="curved=1;endArrow=classic;html=1;rounded=0;" edge="1" parent="1" source="s_LG2WAlYeivpb68vOg7-13" target="oMmEVApQNl-2cXcbZhK9-20">
          <mxGeometry width="50" height="50" relative="1" as="geometry">
            <mxPoint x="1550" y="560" as="sourcePoint" />
            <mxPoint x="1600" y="510" as="targetPoint" />
            <Array as="points">
              <mxPoint x="1500" y="520" />
              <mxPoint x="1580" y="540" />
            </Array>
          </mxGeometry>
        </mxCell>
        <mxCell id="s_LG2WAlYeivpb68vOg7-24" value="obstacle_detected" style="edgeLabel;html=1;align=center;verticalAlign=middle;resizable=0;points=[];" vertex="1" connectable="0" parent="s_LG2WAlYeivpb68vOg7-23">
          <mxGeometry x="0.1638" y="-3" relative="1" as="geometry">
            <mxPoint as="offset" />
          </mxGeometry>
        </mxCell>
        <mxCell id="s_LG2WAlYeivpb68vOg7-25" value="" style="curved=1;endArrow=classic;html=1;rounded=0;" edge="1" parent="1" source="oMmEVApQNl-2cXcbZhK9-20" target="s_LG2WAlYeivpb68vOg7-13">
          <mxGeometry width="50" height="50" relative="1" as="geometry">
            <mxPoint x="1520" y="610" as="sourcePoint" />
            <mxPoint x="1570" y="560" as="targetPoint" />
            <Array as="points">
              <mxPoint x="1580" y="600" />
            </Array>
          </mxGeometry>
        </mxCell>
        <mxCell id="s_LG2WAlYeivpb68vOg7-26" value="&lt;div&gt;succes&lt;/div&gt;" style="edgeLabel;html=1;align=center;verticalAlign=middle;resizable=0;points=[];" vertex="1" connectable="0" parent="s_LG2WAlYeivpb68vOg7-25">
          <mxGeometry x="-0.1049" y="-1" relative="1" as="geometry">
            <mxPoint x="1" as="offset" />
          </mxGeometry>
        </mxCell>
        <mxCell id="s_LG2WAlYeivpb68vOg7-27" value="&lt;h1&gt;FindPuck / Goal&lt;br&gt;&lt;/h1&gt;&lt;p&gt;This ActionServer should turn the Robot circular until a puck/goal is found.&lt;/p&gt;&lt;p&gt;Find Goal has the puck in sight.&lt;br&gt;&lt;/p&gt;" style="text;html=1;strokeColor=none;fillColor=none;spacing=5;spacingTop=-20;whiteSpace=wrap;overflow=hidden;rounded=0;" vertex="1" parent="1">
          <mxGeometry x="850" y="920" width="190" height="120" as="geometry" />
        </mxCell>
        <mxCell id="s_LG2WAlYeivpb68vOg7-29" value="&lt;h1&gt;AttachPuck&lt;/h1&gt;&lt;p&gt;Drive to Puck.&lt;/p&gt;&lt;p&gt;Do we need Avoid Obstacle Server or is the Algorithm good enough?&lt;br&gt;&lt;/p&gt;" style="text;html=1;strokeColor=none;fillColor=none;spacing=5;spacingTop=-20;whiteSpace=wrap;overflow=hidden;rounded=0;" vertex="1" parent="1">
          <mxGeometry x="1080" y="920" width="190" height="120" as="geometry" />
        </mxCell>
        <mxCell id="s_LG2WAlYeivpb68vOg7-30" value="&lt;h1&gt;MoveToGoal&lt;/h1&gt;&lt;p&gt;Drive up to the Goal.&lt;/p&gt;&lt;p&gt;You hace an obstacle(the puck) in sight at all times.&lt;/p&gt;&lt;p&gt;Algorithm? Same as AttachPuck&lt;br&gt;&lt;/p&gt;" style="text;html=1;strokeColor=none;fillColor=none;spacing=5;spacingTop=-20;whiteSpace=wrap;overflow=hidden;rounded=0;" vertex="1" parent="1">
          <mxGeometry x="1316" y="920" width="190" height="140" as="geometry" />
        </mxCell>
      </root>
    </mxGraphModel>
  </diagram>
</mxfile>
